# xmcd
#
# Track frame offsets:
#	150
#	15394
#	28832
#	38144
#	49193
#	66779
#	91637
#	104092
#	121858
#	143232
#	163527
#
# Disc length: 2444 seconds
#
# Revision: 1
# Processed by: cddbd v1.5.2PL0 Copyright (c) Steve Scherf et al.
# Submitted via: audiograbber 1.83.01
#
DISCID=8a098a0b
DTITLE=Louisiana red and City Blues Connection - World On Fire
DYEAR=1985
DGENRE=Blues
TTITLE0=World on Fire
TTITLE1=Mississippi Girl
TTITLE2=Mini Skirt
TTITLE3=When I Was A Boy
TTITLE4=Voodoo Woman
TTITLE5=Suffering
TTITLE6=Pittsburgh
TTITLE7=Special Medicine
TTITLE8=For My Friend
TTITLE9=Soul Food
TTITLE10=On My Way To The Kingdom Land
EXTD=
EXTT0=
EXTT1=
EXTT2=
EXTT3=
EXTT4=
EXTT5=
EXTT6=
EXTT7=
EXTT8=
EXTT9=
EXTT10=
PLAYORDER=
